<svg id="Layer_1" data-name="Layer 1" xmlns="http://www.w3.org/2000/svg" viewBox="0 0 275.98 345.7"><defs><style>.cls-1{fill:#f7941d;}</style></defs><title>HomeControllerLogo_Simple</title><rect class="cls-1" x="350.46" y="435.9" width="2.26" height="9.23" transform="translate(-289.09 -15.87) rotate(-20)"/><rect class="cls-1" x="344.79" y="437.99" width="2.26" height="9.23" transform="matrix(0.97, -0.26, 0.26, 0.97, -262.41, -58.06)"/><rect class="cls-1" x="355.92" y="433.32" width="2.26" height="9.22" transform="translate(-311.26 29.23) rotate(-25)"/><rect class="cls-1" x="361.13" y="430.27" width="2.26" height="9.23" transform="translate(-328.55 76.72) rotate(-30)"/><polygon class="cls-1" points="210.05 260.56 208.99 261.45 208.32 262.01 214.25 269.08 215.98 267.63 211.81 262.66 210.05 260.56"/><path class="cls-1" d="M366.07,376.69a2.52,2.52,0,0,0-2.51-2.51h-25a4.35,4.35,0,0,1,3.42-3.9l8.17-1.74a26.57,26.57,0,1,0,0,16.31L342,383.11a4.35,4.35,0,0,1-3.42-3.9h25A2.52,2.52,0,0,0,366.07,376.69Zm-37.6,0a3.71,3.71,0,0,1-1,2.52h4.38a7.45,7.45,0,1,1,0-5h-4.38A3.71,3.71,0,0,1,328.47,376.69Z" transform="translate(-159.65 -162.66)"/><path class="cls-1" d="M324.76,416.09a4.26,4.26,0,1,0,4.26,4.26A4.26,4.26,0,0,0,324.76,416.09Z" transform="translate(-159.65 -162.66)"/><rect class="cls-1" x="333.03" y="440.67" width="2.26" height="9.23" transform="translate(-197.2 -131.83) rotate(-5)"/><rect class="cls-1" x="338.97" y="439.59" width="2.26" height="9.23" transform="translate(-231.6 -96.87) rotate(-10)"/><rect class="cls-1" x="167.37" y="278.56" width="2.26" height="9.23"/><rect class="cls-1" x="366.06" y="426.78" width="2.26" height="9.23" transform="translate(-340.66 125.9) rotate(-34.99)"/><path class="cls-1" d="M324.76,337.38a4.26,4.26,0,1,0-4.26-4.26A4.26,4.26,0,0,0,324.76,337.38Z" transform="translate(-159.65 -162.66)"/><path class="cls-1" d="M381.72,384.14a7.45,7.45,0,1,0-7.44-7.45A7.44,7.44,0,0,0,381.72,384.14Zm.07-11.17a3.73,3.73,0,1,1-3.72,3.72A3.73,3.73,0,0,1,381.79,373Z" transform="translate(-159.65 -162.66)"/><path class="cls-1" d="M335.76,253.92,243.59,338l-.08,143a391.58,391.58,0,0,0,49.36,26c2.94,1.32,5.47,2,8.67.52,44.32-20.17,85.52-44.65,114.82-85A103.81,103.81,0,0,0,428,402.16L427.94,338ZM324.88,325.4A49.23,49.23,0,0,1,360,340.1L349.3,350.82a34.23,34.23,0,0,0-58.68,24H275.48A49.4,49.4,0,0,1,324.88,325.4Zm-49.4,53.19h15.14a34.09,34.09,0,0,0,8.44,22.47l-10.75,10.75A49.26,49.26,0,0,1,275.48,378.59Zm49.27,73.88V438.92a61.44,61.44,0,0,0,42.1-16.59L365,420.5l-3.19-3.2-2.92-2.92a49.35,49.35,0,0,1-69.55-1.48l10.72-10.72a34.23,34.23,0,0,0,58.12-15.61l-6.55-1.4a28,28,0,0,1-46.25,11.69l.51-.51a.75.75,0,1,0-1.06-1.07l-.49.49A28,28,0,0,1,344,356.16l-.42.42a.75.75,0,0,0,0,1.06.76.76,0,0,0,1.07,0l.43-.43a28.1,28.1,0,0,1,6.6,11l6.55-1.4a34.17,34.17,0,0,0-7.85-14.91l10.72-10.72A49.2,49.2,0,0,1,373,363.66l13.5-2.88a4.36,4.36,0,0,1,5.27,4.26v23.31a4.36,4.36,0,0,1-5.27,4.26L373,389.73a49.1,49.1,0,0,1-10.64,21l3,3,3.2,3.2,1.81,1.81a61.3,61.3,0,0,0,13.71-24.9L397.27,397A74.94,74.94,0,0,1,324.75,452.47Zm77.79-68.33a7.45,7.45,0,1,1,7.44-7.45A7.44,7.44,0,0,1,402.54,384.14Z" transform="translate(-159.65 -162.66)"/><rect class="cls-1" x="387.73" y="398.68" width="2.26" height="9.23" transform="translate(-291.82 446.48) rotate(-67.6)"/><rect class="cls-1" x="385.29" y="403.92" width="2.26" height="9.23" transform="translate(-312.07 406.68) rotate(-63.21)"/><rect class="cls-1" x="389.37" y="393.88" width="2.26" height="9.23" transform="translate(-260.25 500.6) rotate(-73.91)"/><rect class="cls-1" x="382.21" y="409.13" width="2.26" height="9.22" transform="translate(-335.1 327.77) rotate(-55)"/><rect class="cls-1" x="378.77" y="413.93" width="2.26" height="9.23" transform="translate(-344.56 277.93) rotate(-50.01)"/><polygon class="cls-1" points="212.52 257.88 212.34 258.06 213.66 259.39 218.86 264.59 220.46 262.99 213.93 256.47 212.52 257.88"/><path class="cls-1" d="M435.63,198.56c0-7.42-1.71-10.4-9.6-11.82-41-7.37-81.82-15.5-122.67-23.51a28.51,28.51,0,0,0-11.27,0c-41.24,8.06-82.48,16.13-123.81,23.72-6.75,1.25-8.55,3.85-8.47,10.46.35,29.07-.32,135.09-.13,159.55.25,31.81,10.38,57.39,30.77,80A234.8,234.8,0,0,0,218,462.82L218,327.73l12.65-11.54V265.48h31.46v22l73.62-67.15,99.54,90.79C435.17,273.61,435.43,236.08,435.63,198.56Zm-78.37,29.13L355.39,226a1,1,0,0,1-.36-.89l.9-17.24-8.79,9.76a.63.63,0,0,1-1,.05L344.3,216a.64.64,0,0,1-.05-1l12.29-13.65a.64.64,0,0,1,1,0L359.4,203a1.07,1.07,0,0,1,.36.9l-.95,17.29,8.84-9.82a.64.64,0,0,1,1,0l1.85,1.67a.64.64,0,0,1,.05,1l-12.29,13.65A.64.64,0,0,1,357.26,227.69Zm15.22,10-1.37,1.52a.64.64,0,0,1-1,.05l-5.78-5.21c-3.35-3-2.83-5.52-.15-8.5l2.27-2.52c2.6-2.89,5.06-3.69,8.41-.67L377.8,225c3.35,3,2.81,5.54.21,8.43l-1.69,1.87a.63.63,0,0,1-1,.06l-8.28-7.46-.38.42c-1.29,1.43-1.21,2.1,0,3.23l5.73,5.15A.64.64,0,0,1,372.48,237.7Zm7.13,10.11-5.7-5.13a.64.64,0,0,1-.05-1l1.37-1.52a.63.63,0,0,1,1,0l5.73,5.15c1.14,1,1.8,1.18,2.46.45s.51-1.2-.48-2.32L381,240.16c-2.34-2.63-2.29-4.4-.34-6.56s4.31-2.11,7.16.46l5.58,5a.64.64,0,0,1,.05,1l-1.37,1.51a.63.63,0,0,1-1,.06l-5.51-5c-1-.94-1.73-1.14-2.44-.35s-.51,1.16.35,2.13l2.83,3.18c2.59,3,2.44,4.77.55,6.87C384.79,250.85,382.67,250.56,379.61,247.81Zm15.93,10.76L394.23,260a.64.64,0,0,1-1,.05L390.89,258c-3.77-3.4-3.27-5.66-.65-8.58l4.33-4.8-.88-.79a.64.64,0,0,1-.05-1l1.3-1.43a.63.63,0,0,1,1,0c1.48,1.29,1.9,1.28,3.9-.9a.65.65,0,0,1,1-.1l.85.77a.64.64,0,0,1,.05,1l-2.22,2.48,4.24,3.82a.64.64,0,0,1,.05,1l-1.29,1.43a.64.64,0,0,1-1,.06L397.29,247l-4.59,5.1c-1.12,1.25-1,2,.44,3.33l2.35,2.12A.63.63,0,0,1,395.54,258.57Zm7.21,10.07-3.45-3.1c-3.36-3-2.83-5.53-.15-8.5l2.26-2.52c2.61-2.89,5.06-3.7,8.41-.68l3.46,3.11c3.35,3,2.81,5.54.2,8.44l-2.26,2.51C408.54,270.88,406.1,271.66,402.75,268.64Zm24.38,1.72-1.37,1.52a.64.64,0,0,1-1,.05l-3-2.7c-1.12-1-1.88-1.17-3.21.31l-6.17,6.85a.63.63,0,0,1-1,.05l-1.71-1.54a.64.64,0,0,1-.05-1l9.59-10.65a.64.64,0,0,1,1-.05l1.71,1.53a.64.64,0,0,1,.05,1l-.75.84c1.28-.43,2.63-.08,4.23,1.36l1.6,1.44A.63.63,0,0,1,427.13,270.36Z" transform="translate(-159.65 -162.66)"/><path class="cls-1" d="M410.91,259.46l-3.33-3c-1.27-1.15-1.92-1.13-3.19.28l-2.76,3.06c-1.29,1.44-1.22,2.11,0,3.23l3.33,3c1.25,1.12,1.92,1.13,3.22-.31l2.75-3.06C412.24,261.25,412.18,260.6,410.91,259.46Z" transform="translate(-159.65 -162.66)"/><path class="cls-1" d="M375.48,230.72c1.28-1.42,1.22-2.07-.05-3.21L372.62,225c-1.26-1.14-1.92-1.13-3.19.29l-.49.54,6.06,5.45Z" transform="translate(-159.65 -162.66)"/></svg>